<?xml version="1.0" encoding="UTF-8" standalone="no"?>
<svg
   xmlns:dc="http://purl.org/dc/elements/1.1/"
   xmlns:cc="http://creativecommons.org/ns#"
   xmlns:rdf="http://www.w3.org/1999/02/22-rdf-syntax-ns#"
   xmlns:svg="http://www.w3.org/2000/svg"
   xmlns="http://www.w3.org/2000/svg"
   xmlns:sodipodi="http://sodipodi.sourceforge.net/DTD/sodipodi-0.dtd"
   xmlns:inkscape="http://www.inkscape.org/namespaces/inkscape"
   version="1.1"
   id="svg2"
   width="1728.9753"
   height="1440.4064"
   viewBox="0 0 1728.9753 1440.4064"
   sodipodi:docname="afr_logo.svg"
   inkscape:version="1.0.2-2 (e86c870879, 2021-01-15)">
  <metadata
     id="metadata8">
    <rdf:RDF>
      <cc:Work
         rdf:about="">
        <dc:format>image/svg+xml</dc:format>
        <dc:type
           rdf:resource="http://purl.org/dc/dcmitype/StillImage" />
        <dc:title></dc:title>
      </cc:Work>
    </rdf:RDF>
  </metadata>
  <defs
     id="defs6" />
  <sodipodi:namedview
     pagecolor="#ffffff"
     bordercolor="#666666"
     borderopacity="1"
     objecttolerance="10"
     gridtolerance="10"
     guidetolerance="10"
     inkscape:pageopacity="0"
     inkscape:pageshadow="2"
     inkscape:window-width="1920"
     inkscape:window-height="1017"
     id="namedview4"
     showgrid="false"
     inkscape:zoom="0.14752781"
     inkscape:cx="2187.4113"
     inkscape:cy="-453.36928"
     inkscape:window-x="-8"
     inkscape:window-y="-8"
     inkscape:window-maximized="1"
     inkscape:current-layer="g10" />
  <g
     inkscape:groupmode="layer"
     inkscape:label="Image"
     id="g10">
    <path
       style="fill:#e60012;stroke-width:0.81287;fill-opacity:1"
       d="m 344.49065,713.47426 v -12.35947 l 4.26756,0.44352 c 2.34717,0.24393 94.61816,0.63891 205.04656,0.87771 110.4284,0.23881 211.1126,0.66202 223.7426,0.94049 l 22.9636,0.50629 v 9.94207 9.94208 l -199.7629,0.52255 c -109.8696,0.2874 -212.47419,0.75243 -228.01018,1.03339 l -28.24724,0.51084 z m 1081.11765,0.48581 v -7.85108 h 35.3599 35.3598 v 7.31584 7.31583 h -19.3782 c -10.6579,0 -26.5699,0.24086 -35.3598,0.53524 l -15.9817,0.53525 z"
       id="path837"
       sodipodi:nodetypes="ccssscccssccccccccsscc"
       inkscape:export-xdpi="96"
       inkscape:export-ydpi="96" />
    <path
       style="fill:#073190;stroke-width:0.81287;fill-opacity:1"
       d="m 865.13417,1145.3088 c -20.4473,-0.7411 -49.8121,-4.2826 -70.3133,-8.4797 -103.6045,-21.2102 -195.7223,-79.2964 -259.0289,-163.33395 -17.6867,-23.4786 -28.085,-40.3262 -41.6116,-67.4202 -25.384,-50.8446 -39.373,-100.852 -44.3982,-158.7129 l -0.4765,-5.4869 h 7.6802 7.6802 l 0.5036,5.4869 c 4.3429,47.315 15.3724,89.702 34.215,131.4909 27.4412,60.8586 71.5062,115.6833 125.1398,155.69605 51.3882,38.3377 110.3426,63.6412 172.179,73.9002 26.019,4.3168 37.3966,5.2156 66.3985,5.2453 26.8228,0.028 37.2775,-0.6265 58.5267,-3.6613 104.40043,-14.9106 200.65893,-72.2749 263.81513,-157.21815 15.9288,-21.4239 28.7938,-42.7519 40.659,-67.4061 l 7.2616,-15.089 24.5894,-0.01 c 13.5241,0 24.5893,0.2891 24.5893,0.6493 0,3.0419 -15.0067,35.6806 -22.9144,49.8373 -35.3743,63.3287 -81.3355,113.44095 -139.6597,152.27305 -17.814,11.8606 -27.2717,17.3543 -46.0924,26.7737 -46.5316,23.2886 -94.55673,37.3984 -146.96433,43.1782 -9.5639,1.0547 -51.8804,3.1243 -54.4623,2.6638 -0.4471,-0.08 -3.7392,-0.2512 -7.3158,-0.381 z m -63.8145,-304.06025 c 0,-0.3353 20.935,-58.1304 46.5273,-128.4335 l 46.5314,-127.8239 h 19.5213 19.5214 l 45.4778,124.5724 c 25.01283,68.5148 46.13643,126.315 46.94133,128.4448 l 1.4636,3.8724 -26.1485,-0.2144 -26.14853,-0.2146 -7.4512,-22.3539 -7.4513,-22.3539 h -45.8383 -45.8383 l -7.6446,22.5571 -7.6445,22.5572 h -25.9074 c -14.249,0 -25.9092,-0.2744 -25.9115,-0.6097 z m 144.6951,-87.7954 c 0,-1.9159 -30.6796,-92.236 -31.0996,-91.5564 -0.4131,0.6685 -20.7761,58.8729 -29.9003,85.4653 l -2.301,6.7062 h 31.6505 c 17.4077,0 31.6504,-0.2768 31.6504,-0.6151 z m 98.35733,-40.0284 v -128.4336 h 84.5385 84.5385 v 22.354 22.3539 h -59.3395 -59.3396 v 31.7019 31.702 h 50.398 50.398 v 22.3539 22.354 h -50.398 -50.398 v 52.0237 52.0237 h -25.1989 -25.199 z m 198.3404,-0.045 v -128.4787 l 57.1041,0.3033 c 54.2892,0.2883 57.4648,0.3863 64.42,1.9891 30.9547,7.1335 50.5857,25.0615 59.4499,54.2923 2.0582,6.7872 2.2199,8.3732 2.2384,21.9475 0.019,13.6553 -0.1276,15.1094 -2.1905,21.791 -3.9076,12.6566 -9.5347,21.8001 -18.682,30.3569 -5.7199,5.3508 -15.0969,11.5272 -20.9005,13.7668 -2.0119,0.7763 -3.7946,1.5192 -3.9616,1.6508 -0.167,0.1316 11.7704,23.5742 26.5277,52.0947 14.7573,28.5205 27.615,53.4147 28.5727,55.3205 l 1.7413,3.465 -29.0338,-0.2135 -29.0339,-0.2135 -24.8818,-50.8044 -24.8819,-50.8044 -18.045,-0.2188 -18.0452,-0.2188 v 51.2264 51.2264 h -25.199 -25.1989 z m 110.5503,-17.6726 c 20.3201,-6.7325 29.0975,-28.2468 19.5088,-47.818 -4.209,-8.5909 -13.6588,-15.3427 -24.2972,-17.3603 -2.4063,-0.4563 -15.8476,-0.8297 -29.8695,-0.8297 h -25.4945 v 34.214 34.214 l 27.4344,-0.3347 c 25.3936,-0.3098 27.8274,-0.4649 32.718,-2.0853 z m -903.48063,-16.2197 c 4.9819,-57.3621 19.012,-107.7365 43.9781,-157.90007 16.1105,-32.37031 32.7044,-57.77096 56.29,-86.16427 9.9734,-12.00641 40.0431,-42.10023 52.1203,-52.16205 68.9816,-57.47046 146.178,-89.89357 238.171,-100.03363 14.7762,-1.62872 70.4762,-1.33654 85.3514,0.44772 43.454,5.21226 79.76833,14.22589 115.81983,28.74788 94.1907,37.9411 171.4306,107.18258 220.056,197.26827 7.667,14.20432 20.9743,43.5128 20.9743,46.1946 0,0.3602 -11.1596,0.65491 -24.7991,0.65491 h -24.7992 l -1.3693,-3.4547 c -0.7532,-1.90009 -4.2376,-9.25645 -7.743,-16.34747 C 1180.5349,449.15373 1107.488,380.79678 1016.8667,343.06095 980.10167,327.7515 942.90247,318.64668 898.86827,314.1798 c -15.2885,-1.55088 -58.3362,-1.30901 -73.9712,0.41563 -54.4109,6.00183 -98.4174,19.03329 -144.2845,42.72633 -38.5099,19.8926 -68.2674,41.77856 -100.0304,73.5701 -32.3004,32.32943 -56.4487,66.21445 -76.3423,107.124 -21.8865,45.00769 -34.3858,90.26529 -39.0717,141.47159 l -0.5021,5.4869 h -7.6802 -7.6802 z M 1365.4559,377.70921 v -28.45046 h -10.5673 -10.5673 v -3.65792 -3.65792 h 25.1989 25.199 v 3.65792 3.65792 h -10.5673 -10.5673 v 28.45046 28.45047 h -4.0644 -4.0643 z m 38.2049,-3.65791 v -32.10839 h 6.3091 6.3092 l 8.8275,26.62151 c 4.8551,14.64183 9.0576,26.8777 9.3389,27.19083 0.2813,0.31312 4.7179,-11.66638 9.8591,-26.62111 l 9.3477,-27.19044 5.4869,-3.9e-4 5.4869,-4e-4 v 32.10839 32.10838 h -3.6579 -3.658 v -26.9873 c 0,-15.67541 -0.3012,-26.66361 -0.7187,-26.21507 -0.3953,0.42472 -4.59,11.95918 -9.3214,25.63213 -4.7314,13.67294 -8.8367,25.46972 -9.1226,26.21507 -0.3731,0.97225 -1.501,1.35517 -3.9916,1.35517 h -3.4714 l -9.3999,-27.43438 -9.3999,-27.43438 -0.047,27.43438 -0.048,27.43438 h -4.0644 -4.0643 V 374.0513 Z"
       id="path837-4-5"
       sodipodi:nodetypes="csssscccsssscsssccssscsscccscccsscccccccccscssscsscccccccccccccccccccccccssscssssssccccccccccccsssscccsssssssssssscscssssssscccscccccccccccccccccccccssscccccccsssssccccccccc"
       inkscape:export-xdpi="96"
       inkscape:export-ydpi="96" />
    <path
       style="fill:#727171;stroke-width:0.81287;fill-opacity:1"
       d="m 1365.4559,377.70924 v -28.45046 h -10.5673 -10.5673 v -3.65792 -3.65792 h 25.1989 25.199 v 3.65792 3.65792 h -10.5673 -10.5673 v 28.45046 28.45047 h -4.0644 -4.0643 z m 38.2049,-3.65791 v -32.10839 h 6.3091 6.3092 l 8.8275,26.62151 c 4.8551,14.64183 9.0576,26.8777 9.3389,27.19083 0.2813,0.31312 4.7179,-11.66638 9.8591,-26.62111 l 9.3477,-27.19044 5.4869,-3.9e-4 5.4869,-4e-4 v 32.10839 32.10838 h -3.6579 -3.658 v -26.9873 c 0,-15.67541 -0.3012,-26.66361 -0.7187,-26.21507 -0.3953,0.42472 -4.59,11.95918 -9.3214,25.63213 -4.7314,13.67294 -8.8367,25.46972 -9.1226,26.21507 -0.3731,0.97225 -1.501,1.35517 -3.9916,1.35517 h -3.4714 l -9.3999,-27.43438 -9.3999,-27.43438 -0.047,27.43438 -0.048,27.43438 h -4.0644 -4.0643 v -32.10838 z"
       id="path837-4-1"
       sodipodi:nodetypes="cccccccccccccccccccccssscccccccsssssccccccccc"
       inkscape:export-xdpi="96"
       inkscape:export-ydpi="96" />
  </g>
</svg>
